<?xml version="1.0" ?><svg id="Layer_1" style="enable-background:new 0 0 512 512;" version="1.1" viewBox="0 0 512 512" xml:space="preserve" xmlns="http://www.w3.org/2000/svg" xmlns:xlink="http://www.w3.org/1999/xlink"><style type="text/css">
	.st0{fill:#FFFFFF;}
	.st1{fill:#DC7E27;}
	.st2{fill:#2D6853;}
</style><g id="XMLID_1_"><rect class="st0" height="298.7" id="XMLID_28_" width="512" y="106.7"/><path class="st1" d="M219,197.4c0,3.9,0.5,4.4,0.7,5.2c0.3,0.7,0.6,14.3-1.5,17.9c-2,3.7-6,5.8-7.6,6.1   c-1.6,0.4-6.6-3.2-11.3-4.7c-4.7-1.5-4.4-1.2-6.4-1.2c-2,0-6.4,1.7-7.6,2.7c-0.8-0.1-1-0.5-1.5,0c-0.5,0.5-2.5,2.5-2.9,3.7   c-0.5,1.2-1.7,5.9-3.2,6.4c-1.5,0.5-5.5,4.5-8.1,4.7c-2.6,0.2-1.9-0.1-3.7-0.3c-1.8-0.1-2-2-3.7-2.9c-1.7-1-2.2-1.7-2.2-1.7   s-0.5-2-1.2-2c-0.7,0-1.5,3.5-1.5,4.4c0,1,2,4.7,2.9,5.4c1,0.7,1,5.2,0.5,6.4c-0.5,1.2,1,2.5,1.2,3.7c0.2,1.2-1.5,2.2-0.7,2.5   c0.7,0.2,1.7,1.7,1.7,3.2c0,1.5,3.7,2,4.4,3.4c0.7,1.5,1,3.9,1.2,5.4c0.2,1.5,1.1,0.8,1.2,4.4c1.2,0.6,3,1.7,4.4,2.5   c1.5,0.7,1.2,2.5,3.2,3.2c2,0.7,2,0,2.9,0.2c1,0.2-0.5,0.5,1.2,1c1.7,0.5,2.5-0.3,3.9,0.5c1.5,0.7,2.2,2.5,3.2,2.9   c1,0.5,5.2,1.7,5.4,2c0.3,0.2,2.9,1.2,3.4,1.2c0.5,0,2-1,2-1s1.7,0.5,3.2,0c1.5-0.5,2.5-2,3.4-2c1,0,1.2,0.5,2.2,0.5   c1,0,2.5-0.5,2.5-0.5s2.2-0.5,3.9,0.5c1.7,1,5.7,5.7,5.7,7.6c0,2-0.2,2.9-0.2,2.9s2-0.2,2.7,0.3c0.7,0.5,0.7-0.4,6.1,0.5   c-0.4-1.4-5.6-5.2-0.7-10.6c4.9-5.4,5.2-3.2,6.4-4.2c1.2-1,5.7-3.9,13.3-1.2c7.4-1.2,2-2.2,6.1-2.5c0.7-0.3,2.2,0.1,3.7,0.5   c0.5-0.9,1.5-1.8,3.2-1.5c0.3-0.9,2.3-2,4.4-2.2c0.3-1.7,5.6-3.8,8.6-3.9c1.2-1.1,2.6-6,9.3-3.7c0.2-1.6,1.3-4.2,3.2-4.7   c0.4-3.3-0.9-10,2.5-12.3c3.3-3,6.5-2.3,12-2.2c3.8,0.8,5.7,3.7,6.9,3.9c1.2,0.3,1.7,0.3,3.2-0.7c1.5-1-0.2-2.9,1-2.9   c1.2,0,0.7,0.2,2.7,0c2-0.3,1.7-0.9,2.9-1.2c2,1,4.2,0.2,5.2,1c1,0.7,1.1,0.7,3.2,1c0.7,1.2,2.7,1.2,2.7,1.2s-1.5-0.5-1-1.2   c0.5-0.7,0-2.9-1-3.9c-1-1-1.5-1.2-2.2-2.2c-0.7-1,0.3-1-1-2.2c-1.2-1.2-3.9-2.5-4.7-3.9c-0.7-1.5-0.5-2.5-1.7-3.7   c-1.2-1.2-6.1-5.4-6.4-9.8c-0.3-4.4,0.2-8.7,3.2-10.1c-0.1-2.6,0.5-3,3.2-4.4c2.7-1.5,2.9-0.5,4.7-0.5c1.7,0,2.7,0.2,4.4-1   c1.7-1.2,0.3-3.9,4.7-7.9c4.4-3.9,6.1-5.9,7.6-6.1c1.5-0.2,6.8-4,9.1-3.7c1.6-1.9,3.2-4.2,5.2-5.7c2-1.5,4.2-1.5,5.2-2.7   c1-1.2,0.7-3.4,3.7-5.4c3-2,5.4-3.2,6.6-4.2c1.2-1,3.9-0.2,4.9-1.2c1-1,1-4.7,2-5.4c1-0.7-3.2,1.7-5.4,2.7c-2.2,1-5.4,2.7-8.1,2.5   c-2.7-0.2-1.2,1.5-2.7,2c-1.5,0.5-3.9,0.2-4.9,1.2c-1,1-2.7,3.4-4.2,4.4c-1.5,1-2.2,0.7-3.7,1.5c-1.5,0.7-2.7,1.5-3.9,2   c-1.2,0.5-4.9,0.2-4.9,0.2s-3.2,4.2-4.7,5.7c-1.5,1.5-3.2,1.2-4.7,2c-1.5,0.7-14,8.8-22.6,10.1c-8.6,1.2-4.7-0.7-7.4,0   c-2.7,0.7-6.6,5.9-9.8,6.1c-3.2,0.2-4.2,0-4.9,0c-0.7,0-4.7,2.5-7.1,2c-3.6,1.1-6.3,0.9-7.4,0.7c-1-0.1-3,1.2-5.7,0   c-2.1-0.7-2.1,0.8-6.1-0.5c-4.1-1.3-6.9,0.5-8.8-0.5c-2-1-1.7-1.7-3.2-1.7c-1.5,0-1.5,1-3.2,1c-1.7,0-2-1-3.4-1   c-1.5,0-3.2,1-5.4,0.7c-2.2-0.2-2.9-1.2-4.4-1.2C227.1,200.9,219,197.4,219,197.4L219,197.4z" id="XMLID_27_"/><path class="st2" d="M244.1,347.5c4.3-3.1,8-4.1,13.8-5.1c5.8-1,11.9-2.7,15.2-3.6c3.2-0.9-10.9,4.1-14.5,5.1   C255,345,244.1,347.5,244.1,347.5L244.1,347.5z" id="XMLID_26_"/><path class="st2" d="M267.5,338.5c-1.2-7.3,1.7-15,8.4-18.1C277.4,325.7,272.6,334.7,267.5,338.5L267.5,338.5z" id="XMLID_25_"/><path class="st2" d="M278.7,334.7c-3.6-6.1,2.5-13.9,6.9-17.8C287.6,320.6,284,331.5,278.7,334.7L278.7,334.7z" id="XMLID_24_"/><path class="st2" d="M289.2,330c-3.8-5.2,0.7-14.3,5.5-17.9C296.5,317.2,294.6,326.4,289.2,330L289.2,330z" id="XMLID_23_"/><path class="st2" d="M299.6,323.4c-3.5-4.9-1.1-12.6,3.9-17.5C307.1,310,304,318.9,299.6,323.4L299.6,323.4z" id="XMLID_22_"/><path class="st2" d="M307.9,316.8c-2.9-4.6,0.7-15.7,5.3-18.8C315.3,302.2,313.7,313.8,307.9,316.8L307.9,316.8z" id="XMLID_21_"/><path class="st2" d="M314.6,315.1c-0.9-6.7,10.7-14,15.5-13.8C329.6,306.8,324.7,312.7,314.6,315.1L314.6,315.1z" id="XMLID_20_"/><path class="st2" d="M308.1,322.6c5.5-5.6,16-5.6,19.8-4.4C326.9,321.4,314.4,328.6,308.1,322.6L308.1,322.6z" id="XMLID_19_"/><path class="st2" d="M300.6,328.3c7.7-2,12.6-3.8,17.2,1C314.6,333.4,302.1,332.2,300.6,328.3L300.6,328.3z" id="XMLID_18_"/><path class="st2" d="M289.7,333.2c7.3-3.9,16.2,1.9,17.6,5.3C299.1,341.9,289.5,334.1,289.7,333.2L289.7,333.2z" id="XMLID_17_"/><path class="st2" d="M279.6,338.8c6.7-2.6,14.3,0.9,17.4,4.6C293.4,345.2,284,347,279.6,338.8L279.6,338.8z" id="XMLID_16_"/><path class="st2" d="M270.4,341.7c7.7-0.9,15.1,5,16.7,8.3C277.2,351,273.5,348.1,270.4,341.7L270.4,341.7z" id="XMLID_15_"/><path class="st2" d="M267.9,347.5c-4.3-3.1-8-4.1-13.8-5.1c-5.8-1-11.9-2.7-15.2-3.6c-3.2-0.9,10.9,4.1,14.5,5.1   C257,345,267.9,347.5,267.9,347.5L267.9,347.5z" id="XMLID_14_"/><path class="st2" d="M244.5,338.5c1.2-7.3-1.7-15-8.4-18.1C234.6,325.7,239.4,334.7,244.5,338.5L244.5,338.5z" id="XMLID_13_"/><path class="st2" d="M233.3,334.7c3.6-6.1-2.5-13.9-6.9-17.8C224.4,320.6,228,331.5,233.3,334.7L233.3,334.7z" id="XMLID_12_"/><path class="st2" d="M222.9,330c3.8-5.2-0.7-14.3-5.5-17.9C215.5,317.2,217.4,326.4,222.9,330L222.9,330z" id="XMLID_11_"/><path class="st2" d="M212.4,323.4c3.4-4.9,1.1-12.6-3.9-17.5C204.9,310,208,318.9,212.4,323.4L212.4,323.4z" id="XMLID_10_"/><path class="st2" d="M204.1,316.8c2.9-4.6-0.7-15.7-5.3-18.8C196.7,302.2,198.3,313.8,204.1,316.8L204.1,316.8z" id="XMLID_9_"/><path class="st2" d="M197.4,315.1c0.9-6.7-10.8-14-15.5-13.8C182.4,306.8,187.4,312.7,197.4,315.1L197.4,315.1z" id="XMLID_8_"/><path class="st2" d="M203.9,322.6c-5.5-5.6-16-5.6-19.8-4.4C185.1,321.4,197.6,328.6,203.9,322.6L203.9,322.6z" id="XMLID_7_"/><path class="st2" d="M211.4,328.3c-7.7-2-12.6-3.8-17.2,1C197.4,333.4,209.9,332.2,211.4,328.3L211.4,328.3z" id="XMLID_6_"/><path class="st2" d="M222.3,333.2c-7.3-3.9-16.2,1.9-17.6,5.3C213,341.9,222.5,334.1,222.3,333.2L222.3,333.2z" id="XMLID_5_"/><path class="st2" d="M232.4,338.8c-6.7-2.6-14.3,0.9-17.4,4.6C218.6,345.2,228,347,232.4,338.8L232.4,338.8z" id="XMLID_4_"/><path class="st2" d="M241.6,341.7c-7.7-0.9-15.1,5-16.7,8.3C234.8,351,238.6,348.1,241.6,341.7L241.6,341.7z" id="XMLID_3_"/></g></svg>