<?xml version="1.0" encoding="utf-8"?>
<!-- Generator: Adobe Illustrator 22.1.0, SVG Export Plug-In . SVG Version: 6.00 Build 0)  -->
<svg version="1.1" id="Layer_1" xmlns="http://www.w3.org/2000/svg" xmlns:xlink="http://www.w3.org/1999/xlink" x="0px" y="0px"
	 viewBox="0 0 51 51" style="enable-background:new 0 0 51 51;" xml:space="preserve">
<style type="text/css">
	.st0{display:none;}
	.st1{display:inline;}
	.st2{display:inline;stroke:#FFFFFF;stroke-miterlimit:10;}
	.st3{display:inline;fill:none;stroke:#000000;stroke-linecap:round;stroke-linejoin:round;stroke-miterlimit:10;}
</style>
<g id="Wallet" class="st0">
	<path class="st1" d="M39.9,41.1H7.6c-2.4,0-4.3-1.9-4.3-4.3V15.5c0-2.4,1.9-4.3,4.3-4.3h32.3c2.4,0,4.3,1.9,4.3,4.3v21.3
		C44.2,39.2,42.3,41.1,39.9,41.1z"/>
	<circle class="st2" cx="44.2" cy="26.1" r="5.6"/>
</g>
<g id="Payments" class="st0">
	<line class="st3" x1="8" y1="19.8" x2="41.8" y2="19.8"/>
	<polyline class="st3" points="35.8,13.3 42.3,19.8 35.8,26.3 	"/>
	<line class="st3" x1="42.3" y1="32.8" x2="8.5" y2="32.8"/>
	<polyline class="st3" points="14.5,39.3 8,32.8 14.5,26.3 	"/>
</g>
<g id="Exchange" class="st0">
	<path class="st3" d="M15.3,21.7c0-5.6,4.6-10.2,10.2-10.2s10.2,4.6,10.2,10.2"/>
	<polyline class="st3" points="42.2,16.3 35.7,22.8 29.2,16.3 	"/>
	<path class="st3" d="M35.7,30.2c0,5.6-4.6,10.2-10.2,10.2s-10.2-4.6-10.2-10.2"/>
	<polyline class="st3" points="8.8,35.7 15.3,29.2 21.9,35.7 	"/>
</g>
<path d="M23.4,40.7h4.1c1.1,0,1.9-0.9,1.9-1.9V11.4c0-1.1-0.9-1.9-1.9-1.9h-4.1c-1.1,0-1.9,0.9-1.9,1.9v27.3
	C21.5,39.8,22.4,40.7,23.4,40.7z"/>
<path d="M11.3,40.7h4.1c1.1,0,1.9-0.9,1.9-1.9V21.4c0-1.1-0.9-1.9-1.9-1.9h-4.1c-1.1,0-1.9,0.9-1.9,1.9v17.3
	C9.4,39.8,10.2,40.7,11.3,40.7z"/>
<path d="M35.6,40.7h4.1c1.1,0,1.9-0.9,1.9-1.9V28.6c0-1.1-0.9-1.9-1.9-1.9h-4.1c-1.1,0-1.9,0.9-1.9,1.9v10.1
	C33.6,39.8,34.5,40.7,35.6,40.7z"/>
</svg>
