<?xml version="1.0" encoding="utf-8"?>
<!-- Generator: Adobe Illustrator 22.1.0, SVG Export Plug-In . SVG Version: 6.00 Build 0)  -->
<svg version="1.1" id="Layer_1" xmlns="http://www.w3.org/2000/svg" xmlns:xlink="http://www.w3.org/1999/xlink" x="0px" y="0px"
	 viewBox="0 0 51 51" style="enable-background:new 0 0 51 51;" xml:space="preserve">
<style type="text/css">
	.st0{display:none;}
	.st1{display:inline;}
	.st2{display:inline;stroke:#FFFFFF;stroke-miterlimit:10;}
	.st3{display:inline;fill:none;stroke:#000000;stroke-linecap:round;stroke-linejoin:round;stroke-miterlimit:10;}
	.st4{fill:none;stroke:#000000;stroke-width:5;stroke-linecap:round;stroke-linejoin:round;stroke-miterlimit:10;}
	.st5{fill:none;stroke:#000000;stroke-width:5;stroke-linejoin:round;stroke-miterlimit:10;}
</style>
<g id="Wallet" class="st0">
	<path class="st1" d="M39.9,41.1H7.6c-2.4,0-4.3-1.9-4.3-4.3V15.5c0-2.4,1.9-4.3,4.3-4.3h32.3c2.4,0,4.3,1.9,4.3,4.3v21.3
		C44.2,39.2,42.3,41.1,39.9,41.1z"/>
	<circle class="st2" cx="44.2" cy="26.1" r="5.6"/>
</g>
<g id="Payments" class="st0">
	<line class="st3" x1="8" y1="19.8" x2="41.8" y2="19.8"/>
	<polyline class="st3" points="35.8,13.3 42.3,19.8 35.8,26.3 	"/>
	<line class="st3" x1="42.3" y1="32.8" x2="8.5" y2="32.8"/>
	<polyline class="st3" points="14.5,39.3 8,32.8 14.5,26.3 	"/>
</g>
<g id="Exchange">
	<path class="st4" d="M15.3,21.7c0-5.6,4.6-10.2,10.2-10.2s10.2,4.6,10.2,10.2"/>
	<polyline class="st4" points="40.5,14.1 36.9,22.6 28.5,19 	"/>
	<path class="st5" d="M34.9,34.1c-0.2,0.5-0.5,1-0.7,1.4c-1.8,2.9-5,4.9-8.7,4.9c-5.6,0-10.2-4.6-10.2-10.2"/>
	<polyline class="st4" points="10.9,38.3 13.9,29.6 22.7,32.5 	"/>
	<circle cx="36" cy="30.3" r="2.5"/>
</g>
<g id="More" class="st0">
	<circle class="st1" cx="26" cy="15.8" r="7.8"/>
	<circle class="st1" cx="12.3" cy="28.6" r="5"/>
	<circle class="st1" cx="35.3" cy="33.6" r="3.5"/>
</g>
</svg>
