<svg xmlns="http://www.w3.org/2000/svg" width="256" height="256"><path fill-opacity=".016" d="M0 128.004v128.004l128.25-.254 128.25-.254.254-127.75L257.008 0H0v128.004m.485.496c0 70.4.119 99.053.265 63.672.146-35.38.146-92.98 0-128C.604 29.153.485 58.1.485 128.5" fill="#1976D2" fill-rule="evenodd"/><path fill-opacity=".295" d="M147.22 1.424c-.375.592-2.087 5.351-3.804 10.576l-3.123 9.5-6.896-.328c-8.942-.425-29.996 2.359-37.794 4.997C73.495 33.65 57.37 48.695 50.235 68.5c-5.706 15.838-6.234 20.893-6.248 59.829-.013 37.387.302 41.156 4.689 56.171 3.933 13.458 13.994 27.955 24.978 35.989 1.148.84.806 2.745-2.016 11.238-3.785 11.396-3.792 11.37 3.362 13.277 2.475.66 11.069 3.404 19.097 6.098S109.376 256 110.21 256c.979 0 2.128-2.038 3.244-5.75.95-3.162 2.474-7.661 3.387-9.996l1.659-4.247 11.002-.003c10.45-.004 29.218-2.702 33.998-4.888 1.1-.503 3.575-1.497 5.5-2.209 7.554-2.794 17.447-9.634 23.867-16.502C204.576 199.879 211 183.563 211 166.345v-8.381l-24.25.268-24.25.268-.652 7.303C160.458 181.367 149.105 190 130.027 190c-18.203 0-27.875-6.766-32.987-23.075-1.84-5.87-2.014-9.146-2.014-37.925 0-28.803.173-32.057 2.022-38 5.243-16.857 16.83-24.729 34.952-23.747 9.828.532 15.824 2.786 21.817 8.201 5.273 4.763 7.438 9.575 8.12 18.046l.563 7 24.25.268 24.25.268v-9.537c0-18.76-6.492-34.9-19.22-47.783-7.943-8.039-8.602-9.311-6.686-12.892 1.399-2.614 5.112-15.951 4.587-16.476-.218-.219-9.708-3.458-21.087-7.199-13.695-4.501-20.922-6.437-21.374-5.725" fill="#1976D2" fill-rule="evenodd"/><path fill-opacity=".508" d="M146.655 4.345c-.711 1.735-2.309 6.351-3.551 10.257l-2.26 7.102-15.172.582C98.339 23.334 81.391 29.691 66.455 44.5 55.137 55.722 49.305 67.738 45.826 87c-1.904 10.547-1.61 74.354.393 85 3.699 19.668 12.407 35.867 24.19 45 2.483 1.925 4.527 4.175 4.541 5 .014.825-1.323 5.523-2.972 10.44s-2.656 9.275-2.238 9.684c.574.561 23.683 8.31 39.945 13.393.728.227 2.498-3.568 4.581-9.823l3.395-10.194 15.92-.617c16.291-.632 20.603-1.306 30.694-4.796 29.037-10.041 47.079-35.963 46.345-66.587l-.12-5h-47l-.698 6.326c-.84 7.618-3.834 14.177-8.13 17.81-13.767 11.646-40.663 10.621-51.3-1.954-4.053-4.791-7.201-12.435-8.325-20.213-1.305-9.029-1.305-53.909 0-62.938 1.853-12.821 7.907-22.356 17.363-27.345 4.737-2.5 5.956-2.686 17.59-2.686 11.673 0 12.841.18 17.659 2.721C156.702 74.99 163 85.44 163 95.678V100h48v-4.928c0-7.639-1.964-19.956-4.238-26.572-3.401-9.897-7.704-16.576-16-24.835l-7.87-7.835 3.054-9.167c1.68-5.043 3.054-9.845 3.054-10.672 0-1.374-11.444-5.584-35.735-13.146l-5.317-1.655-1.293 3.155" fill="#1976D2" fill-rule="evenodd"/><path fill-opacity=".977" d="M147.522 3.25c-.228.688-1.74 5.3-3.36 10.25l-2.944 9-15.359.563c-27.515 1.008-44.482 7.218-59.604 21.813C55.639 55.123 46.473 76.792 45.887 93.03c-.12 3.331-.594 6.289-1.053 6.572-1.085.671-1.093 57.12-.007 57.791.455.281.919 3.12 1.031 6.309.308 8.74 4.794 24.811 9.433 33.798 3.059 5.925 6.277 10.135 12.407 16.232l8.276 8.232-3.046 9.091c-1.675 5.001-2.893 9.551-2.705 10.113.295.885 37.447 13.832 39.692 13.832.457 0 2.296-4.5 4.085-10 1.789-5.5 3.759-9.997 4.377-9.992 13.76.092 29.565-1.192 37.088-3.014 32.741-7.929 52.379-30.649 54.231-62.744l.591-10.25H164v3.341c0 8.458-5.746 18.956-12.967 23.689-4.023 2.638-15.794 5.928-21.296 5.953-6.093.028-17.516-3.637-22.503-7.219-5.699-4.094-9.948-11.116-11.938-19.729-2.332-10.094-2.92-52.532-.911-65.751 3.346-22.022 12.73-31.511 32.615-32.978 20.425-1.508 34.744 9.387 36.68 27.906l.605 5.788h45.994l-.578-11.25c-.993-19.34-6.919-32.916-19.696-45.123l-7.777-7.43 3.433-10.251c1.889-5.638 3.075-10.549 2.636-10.914-.438-.364-4.847-1.938-9.797-3.498-4.95-1.56-13.493-4.343-18.985-6.185-11.292-3.787-11.425-3.81-11.993-2.099" fill="#1976D2" fill-rule="evenodd"/></svg>