<?xml version="1.0" encoding="UTF-8" standalone="no"?>
<!DOCTYPE svg PUBLIC "-//W3C//DTD SVG 1.1//EN" "http://www.w3.org/Graphics/SVG/1.1/DTD/svg11.dtd">
<svg version="1.1" xmlns="http://www.w3.org/2000/svg" xmlns:xlink="http://www.w3.org/1999/xlink" preserveAspectRatio="xMidYMid meet" viewBox="0 0 32 32" width="32" height="32"><defs><path d="M32 16C32 24.83 24.83 32 16 32C7.17 32 0 24.83 0 16C0 7.17 7.17 0 16 0C24.83 0 32 7.17 32 16Z" id="c9gtiy9Lg"></path><path d="M15.66 5.16L27.04 16.5L15.66 27.84C13.79 25.98 12.75 24.94 12.55 24.74C15.65 24.06 18.12 21.7 18.93 18.63C18.5 18.63 15.09 18.63 14.67 18.63C13.49 20.79 10.79 21.59 8.63 20.41C6.47 19.23 5.67 16.53 6.85 14.37C8.02 12.21 10.73 11.41 12.89 12.59C13.64 13 14.26 13.62 14.67 14.37C15.09 14.37 18.5 14.37 18.93 14.37C18.12 11.3 15.65 8.94 12.55 8.27C12.96 7.85 14 6.82 15.66 5.16Z" id="bFxoDYDqB"></path></defs><g><g><g><use xlink:href="#c9gtiy9Lg" opacity="1" fill="#124f81" fill-opacity="1"></use></g><g><use xlink:href="#bFxoDYDqB" opacity="1" fill="#16ac9f" fill-opacity="1"></use><g><use xlink:href="#bFxoDYDqB" opacity="1" fill-opacity="0" stroke="#000000" stroke-width="1" stroke-opacity="0"></use></g></g></g></g></svg>